<?xml version="1.0" encoding="UTF-8"?>
<svg id="Layer_2" data-name="Layer 2" xmlns="http://www.w3.org/2000/svg" viewBox="0 0 156.96 146.88">
  <defs>
    <style>
      .cls-1 {
        fill: #832990;
      }

      .cls-2 {
        fill: #b78abe;
      }

      .cls-3 {
        fill: #fefefe;
      }
    </style>
  </defs>
  <g id="Layer_1-2" data-name="Layer 1">
    <g>
      <path class="cls-3" d="M74.53,.02C101.67,.02,128.81,.03,155.96,0c.78,0,1,.1,1,.96-.03,48.33-.03,96.67,0,145,0,.75-.18,.91-.92,.91-51.69-.02-103.38-.02-155.08,0-.87,0-.95-.24-.95-1.01,.02-30.81,.02-61.62,.02-92.44,.4-.02,.5,.35,.7,.56,6.64,6.95,13.28,13.91,19.91,20.87,4.54,4.77,9.07,9.55,13.61,14.31,.36,.37,.5,.68,.38,1.25-1.3,6.34-2.54,12.7-3.82,19.05-2.03,10.09-4.07,20.17-6.15,30.25-.17,.84,.04,1.11,.77,1.37,3.56,1.28,7.12,2.59,10.66,3.92,.69,.26,1.27,.24,1.93-.1,5.55-2.9,11.12-5.77,16.68-8.65,8.22-4.26,16.43-8.53,24.65-12.8,.55-.29,1.02-.47,1.66-.11,8.33,4.72,16.66,9.44,25.02,14.11,3.01,1.68,5.88,3.65,9.12,4.9,3.16,1.22,6.34,2.38,9.52,3.57,.4,.15,.86,.53,1.22,.26,.36-.28,.1-.82,.05-1.24-.76-5.73-1.54-11.45-2.29-17.18-1.08-8.18-2.14-16.36-3.22-24.54-.29-2.17-.61-4.33-1.05-6.48-.17-.85,0-1.74,.82-2.34,1.79-1.34,3.3-2.99,4.92-4.52,5.27-5,10.52-10.02,15.76-15.05,4.99-4.78,9.95-9.58,14.95-14.34,.74-.71,.64-1-.29-1.34-2.24-.83-4.45-1.75-6.68-2.62-1.63-.64-3.23-1.45-4.93-1.82-2.94-.64-5.95-1-8.92-1.47-9.18-1.46-18.35-2.94-27.54-4.35-1.28-.2-1.94-.77-2.46-1.96-5.98-13.62-12.02-27.21-18.03-40.82-.34-.77-.85-1.19-1.6-1.48-3.37-1.34-6.74-2.7-10.1-4.07-.28-.11-.74-.04-.75-.54Z"/>
      <path class="cls-3" d="M.02,53.2c0-17.41,0-34.81-.02-52.22C0,.16,.16,0,.98,0,25.26,.03,49.53,.02,73.81,.02c.18,.45-.18,.75-.35,1.08-7.44,14.39-14.91,28.78-22.33,43.18-.7,1.37-1.45,2.1-3.13,2.31-9,1.13-17.97,2.46-26.95,3.71-7.01,.97-14.02,1.93-21.03,2.89Z"/>
      <path class="cls-1" d="M.02,53.2c7.01-.96,14.02-1.92,21.03-2.89,8.98-1.25,17.95-2.58,26.95-3.71,1.69-.21,2.43-.94,3.13-2.31,7.42-14.41,14.89-28.79,22.33-43.18,.17-.33,.53-.63,.35-1.08h.72c0,.51,.47,.43,.75,.54,3.36,1.37,6.72,2.73,10.1,4.07,.74,.29,1.26,.72,1.6,1.48,6,13.61,12.05,27.2,18.03,40.82,.52,1.18,1.18,1.76,2.46,1.96,9.18,1.42,18.36,2.89,27.54,4.35,2.98,.47,5.98,.83,8.92,1.47,1.69,.37,3.29,1.18,4.93,1.82,2.23,.87,4.44,1.79,6.68,2.62,.93,.34,1.03,.64,.29,1.34-5,4.77-9.96,9.56-14.95,14.34-5.25,5.02-10.49,10.05-15.76,15.05-1.61,1.53-3.13,3.18-4.92,4.52-.82,.61-.99,1.5-.82,2.34,.44,2.15,.76,4.31,1.05,6.48,1.08,8.18,2.14,16.36,3.22,24.54,.76,5.73,1.53,11.46,2.29,17.18,.06,.42,.32,.97-.05,1.24-.36,.27-.82-.11-1.22-.26-3.18-1.18-6.36-2.34-9.52-3.57-3.24-1.25-6.11-3.22-9.12-4.9-8.36-4.67-16.69-9.39-25.02-14.11-.64-.36-1.11-.18-1.66,.11-8.21,4.27-16.43,8.54-24.65,12.8-5.56,2.88-11.13,5.75-16.68,8.65-.66,.35-1.24,.36-1.93,.1-3.54-1.33-7.1-2.65-10.66-3.92-.73-.26-.95-.53-.77-1.37,2.08-10.08,4.12-20.16,6.15-30.25,1.28-6.35,2.52-12.71,3.82-19.05,.12-.57-.03-.88-.38-1.25-4.54-4.76-9.07-9.54-13.61-14.31-6.63-6.96-13.26-13.92-19.91-20.87-.2-.21-.3-.58-.7-.56,0-.08,0-.16,0-.24Zm112.35,86.69c-.04-.71-.03-1.11-.08-1.5-.43-3.24-.88-6.48-1.31-9.72-1.63-12.48-3.24-24.97-4.92-37.44-.09-.71,.08-1.12,.5-1.53,1.85-1.79,3.73-3.56,5.58-5.35,3.77-3.64,7.59-7.23,11.36-10.86,3.75-3.61,7.5-7.2,11.26-10.79,2.09-2,4.17-4.02,6.25-6.03,.31-.3,.86-.5,.72-.99-.15-.53-.79-.43-1.22-.51-3.49-.59-6.99-1.14-10.49-1.71-11.36-1.83-22.72-3.69-34.1-5.46-1.45-.22-2.19-.81-2.76-2.12-5.33-12.15-10.71-24.28-16.09-36.41-1-2.25-2.01-4.48-3.04-6.76-.66,.39-.82,.96-1.07,1.44-2.1,4.03-4.19,8.07-6.28,12.11-5.02,9.71-10.06,19.4-15.03,29.13-.69,1.35-1.52,1.97-3.06,2.13-3.57,.36-7.11,.94-10.66,1.43-9.71,1.34-19.43,2.66-29.14,4.03-2.11,.3-4.25,.46-6.29,.98-.07,.4,.19,.52,.34,.69,4.22,4.47,8.43,8.94,12.66,13.4,6.51,6.86,13.02,13.72,19.55,20.57,.56,.59,.7,1.15,.54,1.93-2.01,9.9-3.99,19.81-5.99,29.71-1.13,5.62-2.3,11.23-3.42,16.85-.09,.44-.4,1.07-.02,1.35,.42,.31,.96-.16,1.39-.38,2.92-1.53,5.81-3.11,8.74-4.63,5.09-2.64,10.21-5.24,15.31-7.88,5.76-2.98,11.52-5.98,17.26-9.01,.63-.33,1.09-.32,1.71,.02,3.52,1.95,7.1,3.8,10.61,5.77,8.18,4.57,16.33,9.18,24.5,13.78,2.15,1.21,4.3,2.41,6.69,3.75Z"/>
      <path class="cls-2" d="M112.37,139.88c-2.39-1.34-4.54-2.54-6.69-3.75-8.17-4.59-16.32-9.21-24.5-13.78-3.51-1.96-7.09-3.82-10.61-5.77-.63-.35-1.08-.36-1.71-.02-5.74,3.02-11.5,6.02-17.26,9.01-5.1,2.64-10.22,5.24-15.31,7.88-2.92,1.52-5.82,3.1-8.74,4.63-.43,.23-.96,.7-1.39,.38-.38-.28-.07-.91,.02-1.35,1.12-5.62,2.29-11.23,3.42-16.85,2-9.9,3.98-19.81,5.99-29.71,.16-.78,.02-1.35-.54-1.93-6.53-6.84-13.04-13.7-19.55-20.57-4.23-4.46-8.44-8.93-12.66-13.4-.15-.16-.41-.28-.34-.69,2.04-.51,4.18-.68,6.29-.98,9.71-1.37,19.43-2.69,29.14-4.03,3.55-.49,7.1-1.07,10.66-1.43,1.54-.15,2.37-.78,3.06-2.13,4.97-9.73,10.01-19.43,15.03-29.13,2.09-4.04,4.18-8.08,6.28-12.11,.25-.48,.41-1.04,1.07-1.44,1.02,2.27,2.04,4.51,3.04,6.76,5.37,12.13,10.76,24.26,16.09,36.41,.57,1.31,1.32,1.9,2.76,2.12,11.37,1.76,22.73,3.62,34.1,5.46,3.5,.56,7,1.11,10.49,1.71,.43,.07,1.06-.02,1.22,.51,.14,.49-.42,.69-.72,.99-2.08,2.01-4.16,4.03-6.25,6.03-3.76,3.59-7.52,7.18-11.26,10.79-3.77,3.63-7.59,7.22-11.36,10.86-1.85,1.79-3.73,3.56-5.58,5.35-.42,.41-.6,.82-.5,1.53,1.68,12.48,3.29,24.96,4.92,37.44,.42,3.24,.88,6.48,1.31,9.72,.05,.39,.04,.79,.08,1.5Z"/>
    </g>
  </g>
</svg>